<?xml version="1.0" encoding="UTF-8"?>
<svg width="466px" height="118px" viewBox="0 0 466 118" version="1.1" xmlns="http://www.w3.org/2000/svg" xmlns:xlink="http://www.w3.org/1999/xlink">
    <!-- Generator: Sketch 47 (45396) - http://www.bohemiancoding.com/sketch -->
    <title>Logo</title>
    <desc>Created with Sketch.</desc>
    <defs></defs>
    <g id="Website" stroke="none" stroke-width="1" fill="none" fill-rule="evenodd">
        <g id="Loading" transform="translate(-487.000000, -425.000000)">
            <g id="Logo" transform="translate(488.000000, 426.000000)">
                <path d="M29.471068,39.492 L29.1821359,39.492 L21.958835,76.644 L36.6943689,76.644 L29.471068,39.492 Z M23.2590291,9.972 L35.5386408,9.972 L58.5087379,112.5 L43.7732039,112.5 L39.4392233,90.468 L19.3584466,90.468 L15.024466,112.5 L0.288932039,112.5 L23.2590291,9.972 Z M117.920388,89.46 C117.920388,92.8200168 117.294375,95.9399856 116.04233,98.82 C114.790285,101.700014 113.080788,104.219989 110.913786,106.38 C108.746785,108.540011 106.218655,110.243994 103.32932,111.492 C100.439986,112.740006 97.3580746,113.364 94.0834951,113.364 C90.8089157,113.364 87.7270047,112.740006 84.8376699,111.492 C81.9483351,110.243994 79.420205,108.540011 77.2532039,106.38 C75.0862028,104.219989 73.3767053,101.700014 72.1246602,98.82 C70.8726151,95.9399856 70.2466019,92.8200168 70.2466019,89.46 L70.2466019,9.972 L84.9821359,9.972 L84.9821359,88.02 C84.9821359,91.6680182 85.8489234,94.3559914 87.5825243,96.084 C89.3161252,97.8120086 91.4830938,98.676 94.0834951,98.676 C96.6838965,98.676 98.8508651,97.8120086 100.584466,96.084 C102.318067,94.3559914 103.184854,91.6680182 103.184854,88.02 L103.184854,9.972 L117.920388,9.972 L117.920388,89.46 Z M135.436893,34.164 C135.436893,30.0359794 136.159216,26.3880158 137.603883,23.22 C139.048551,20.0519842 140.950668,17.4360103 143.310291,15.372 C145.669915,13.3079897 148.318432,11.7480053 151.255922,10.692 C154.193413,9.63599472 157.154937,9.108 160.140583,9.108 C163.126229,9.108 166.087752,9.63599472 169.025243,10.692 C171.962733,11.7480053 174.61125,13.3079897 176.970874,15.372 C179.330497,17.4360103 181.232614,20.0519842 182.677282,23.22 C184.121949,26.3880158 184.844272,30.0359794 184.844272,34.164 L184.844272,39.348 L170.108738,39.348 L170.108738,34.164 C170.108738,30.6119822 169.121563,27.9960084 167.147184,26.316 C165.172806,24.6359916 162.837295,23.796 160.140583,23.796 C157.44387,23.796 155.108359,24.6359916 153.133981,26.316 C151.159602,27.9960084 150.172427,30.6119822 150.172427,34.164 L150.172427,88.308 C150.172427,91.8600178 151.159602,94.4759916 153.133981,96.156 C155.108359,97.8360084 157.44387,98.676 160.140583,98.676 C162.837295,98.676 165.172806,97.8360084 167.147184,96.156 C169.121563,94.4759916 170.108738,91.8600178 170.108738,88.308 L170.108738,69.012 L158.40699,69.012 L158.40699,56.052 L184.844272,56.052 L184.844272,88.308 C184.844272,92.5320211 184.121949,96.2039844 182.677282,99.324 C181.232614,102.444016 179.330497,105.03599 176.970874,107.1 C174.61125,109.16401 171.962733,110.723995 169.025243,111.78 C166.087752,112.836005 163.126229,113.364 160.140583,113.364 C157.154937,113.364 154.193413,112.836005 151.255922,111.78 C148.318432,110.723995 145.669915,109.16401 143.310291,107.1 C140.950668,105.03599 139.048551,102.444016 137.603883,99.324 C136.159216,96.2039844 135.436893,92.5320211 135.436893,88.308 L135.436893,34.164 Z M202.360777,9.972 L216.518447,9.972 L235.443495,64.26 L235.732427,64.26 L254.51301,9.972 L268.815146,9.972 L268.815146,112.5 L254.079612,112.5 L254.079612,50.148 L253.79068,50.148 L239.199612,94.212 L231.831845,94.212 L217.385243,50.148 L217.096311,50.148 L217.096311,112.5 L202.360777,112.5 L202.360777,9.972 Z M287.198447,9.972 L331.116117,9.972 L331.116117,23.796 L301.933981,23.796 L301.933981,53.892 L327.36,53.892 L327.36,67.716 L301.933981,67.716 L301.933981,97.812 L331.116117,97.812 L331.116117,112.5 L287.198447,112.5 L287.198447,9.972 Z M344.587573,9.972 L358.745243,9.972 L380.99301,71.748 L381.281942,71.748 L381.281942,9.972 L396.017476,9.972 L396.017476,112.5 L382.148738,112.5 L359.612039,50.868 L359.323107,50.868 L359.323107,112.5 L344.587573,112.5 L344.587573,9.972 Z M423.502136,23.796 L406.455146,23.796 L406.455146,9.972 L455.28466,9.972 L455.28466,23.796 L438.23767,23.796 L438.23767,112.5 L423.502136,112.5 L423.502136,23.796 Z" id="AUGMENT" stroke="#0B67E7" transform="translate(227.786796, 61.236000) rotate(-360.000000) translate(-227.786796, -61.236000) "></path>
                <path d="M38.5001942,41.742 L38.2112621,41.742 L30.9879612,78.894 L45.7234951,78.894 L38.5001942,41.742 Z M32.2881553,12.222 L44.567767,12.222 L67.5378641,114.75 L52.8023301,114.75 L48.4683495,92.718 L28.3875728,92.718 L24.0535922,114.75 L9.31805825,114.75 L32.2881553,12.222 Z M126.949515,91.71 C126.949515,95.0700168 126.323501,98.1899856 125.071456,101.07 C123.819411,103.950014 122.109914,106.469989 119.942913,108.63 C117.775911,110.790011 115.247781,112.493994 112.358447,113.742 C109.469112,114.990006 106.387201,115.614 103.112621,115.614 C99.8380419,115.614 96.756131,114.990006 93.8667961,113.742 C90.9774613,112.493994 88.4493312,110.790011 86.2823301,108.63 C84.115329,106.469989 82.4058315,103.950014 81.1537864,101.07 C79.9017413,98.1899856 79.2757282,95.0700168 79.2757282,91.71 L79.2757282,12.222 L94.0112621,12.222 L94.0112621,90.27 C94.0112621,93.9180182 94.8780496,96.6059914 96.6116505,98.334 C98.3452514,100.062009 100.51222,100.926 103.112621,100.926 C105.713023,100.926 107.879991,100.062009 109.613592,98.334 C111.347193,96.6059914 112.213981,93.9180182 112.213981,90.27 L112.213981,12.222 L126.949515,12.222 L126.949515,91.71 Z M144.466019,36.414 C144.466019,32.2859794 145.188342,28.6380158 146.63301,25.47 C148.077677,22.3019842 149.979794,19.6860103 152.339417,17.622 C154.699041,15.5579897 157.347558,13.9980053 160.285049,12.942 C163.222539,11.8859947 166.184063,11.358 169.169709,11.358 C172.155355,11.358 175.116879,11.8859947 178.054369,12.942 C180.991859,13.9980053 183.640377,15.5579897 186,17.622 C188.359623,19.6860103 190.26174,22.3019842 191.706408,25.47 C193.151075,28.6380158 193.873398,32.2859794 193.873398,36.414 L193.873398,41.598 L179.137864,41.598 L179.137864,36.414 C179.137864,32.8619822 178.150689,30.2460084 176.176311,28.566 C174.201932,26.8859916 171.866421,26.046 169.169709,26.046 C166.472996,26.046 164.137486,26.8859916 162.163107,28.566 C160.188728,30.2460084 159.201553,32.8619822 159.201553,36.414 L159.201553,90.558 C159.201553,94.1100178 160.188728,96.7259916 162.163107,98.406 C164.137486,100.086008 166.472996,100.926 169.169709,100.926 C171.866421,100.926 174.201932,100.086008 176.176311,98.406 C178.150689,96.7259916 179.137864,94.1100178 179.137864,90.558 L179.137864,71.262 L167.436117,71.262 L167.436117,58.302 L193.873398,58.302 L193.873398,90.558 C193.873398,94.7820211 193.151075,98.4539844 191.706408,101.574 C190.26174,104.694016 188.359623,107.28599 186,109.35 C183.640377,111.41401 180.991859,112.973995 178.054369,114.03 C175.116879,115.086005 172.155355,115.614 169.169709,115.614 C166.184063,115.614 163.222539,115.086005 160.285049,114.03 C157.347558,112.973995 154.699041,111.41401 152.339417,109.35 C149.979794,107.28599 148.077677,104.694016 146.63301,101.574 C145.188342,98.4539844 144.466019,94.7820211 144.466019,90.558 L144.466019,36.414 Z M211.389903,12.222 L225.547573,12.222 L244.472621,66.51 L244.761553,66.51 L263.542136,12.222 L277.844272,12.222 L277.844272,114.75 L263.108738,114.75 L263.108738,52.398 L262.819806,52.398 L248.228738,96.462 L240.860971,96.462 L226.414369,52.398 L226.125437,52.398 L226.125437,114.75 L211.389903,114.75 L211.389903,12.222 Z M296.227573,12.222 L340.145243,12.222 L340.145243,26.046 L310.963107,26.046 L310.963107,56.142 L336.389126,56.142 L336.389126,69.966 L310.963107,69.966 L310.963107,100.062 L340.145243,100.062 L340.145243,114.75 L296.227573,114.75 L296.227573,12.222 Z M353.616699,12.222 L367.774369,12.222 L390.022136,73.998 L390.311068,73.998 L390.311068,12.222 L405.046602,12.222 L405.046602,114.75 L391.177864,114.75 L368.641165,53.118 L368.352233,53.118 L368.352233,114.75 L353.616699,114.75 L353.616699,12.222 Z M432.531262,26.046 L415.484272,26.046 L415.484272,12.222 L464.313786,12.222 L464.313786,26.046 L447.266796,26.046 L447.266796,114.75 L432.531262,114.75 L432.531262,26.046 Z" id="AUGMENT" stroke="#191919" fill-opacity="0" fill="#FF1CDB" transform="translate(236.815922, 63.486000) rotate(-360.000000) translate(-236.815922, -63.486000) "></path>
                <path d="M38.5001942,30.492 L38.2112621,30.492 L30.9879612,67.644 L45.7234951,67.644 L38.5001942,30.492 Z M32.2881553,0.972 L44.567767,0.972 L67.5378641,103.5 L52.8023301,103.5 L48.4683495,81.468 L28.3875728,81.468 L24.0535922,103.5 L9.31805825,103.5 L32.2881553,0.972 Z M126.949515,80.46 C126.949515,83.8200168 126.323501,86.9399856 125.071456,89.82 C123.819411,92.7000144 122.109914,95.2199892 119.942913,97.38 C117.775911,99.5400108 115.247781,101.243994 112.358447,102.492 C109.469112,103.740006 106.387201,104.364 103.112621,104.364 C99.8380419,104.364 96.756131,103.740006 93.8667961,102.492 C90.9774613,101.243994 88.4493312,99.5400108 86.2823301,97.38 C84.115329,95.2199892 82.4058315,92.7000144 81.1537864,89.82 C79.9017413,86.9399856 79.2757282,83.8200168 79.2757282,80.46 L79.2757282,0.972 L94.0112621,0.972 L94.0112621,79.02 C94.0112621,82.6680182 94.8780496,85.3559914 96.6116505,87.084 C98.3452514,88.8120086 100.51222,89.676 103.112621,89.676 C105.713023,89.676 107.879991,88.8120086 109.613592,87.084 C111.347193,85.3559914 112.213981,82.6680182 112.213981,79.02 L112.213981,0.972 L126.949515,0.972 L126.949515,80.46 Z M144.466019,25.164 C144.466019,21.0359794 145.188342,17.3880158 146.63301,14.22 C148.077677,11.0519842 149.979794,8.43601032 152.339417,6.372 C154.699041,4.30798968 157.347558,2.74800528 160.285049,1.692 C163.222539,0.63599472 166.184063,0.108 169.169709,0.108 C172.155355,0.108 175.116879,0.63599472 178.054369,1.692 C180.991859,2.74800528 183.640377,4.30798968 186,6.372 C188.359623,8.43601032 190.26174,11.0519842 191.706408,14.22 C193.151075,17.3880158 193.873398,21.0359794 193.873398,25.164 L193.873398,30.348 L179.137864,30.348 L179.137864,25.164 C179.137864,21.6119822 178.150689,18.9960084 176.176311,17.316 C174.201932,15.6359916 171.866421,14.796 169.169709,14.796 C166.472996,14.796 164.137486,15.6359916 162.163107,17.316 C160.188728,18.9960084 159.201553,21.6119822 159.201553,25.164 L159.201553,79.308 C159.201553,82.8600178 160.188728,85.4759916 162.163107,87.156 C164.137486,88.8360084 166.472996,89.676 169.169709,89.676 C171.866421,89.676 174.201932,88.8360084 176.176311,87.156 C178.150689,85.4759916 179.137864,82.8600178 179.137864,79.308 L179.137864,60.012 L167.436117,60.012 L167.436117,47.052 L193.873398,47.052 L193.873398,79.308 C193.873398,83.5320211 193.151075,87.2039844 191.706408,90.324 C190.26174,93.4440156 188.359623,96.0359897 186,98.1 C183.640377,100.16401 180.991859,101.723995 178.054369,102.78 C175.116879,103.836005 172.155355,104.364 169.169709,104.364 C166.184063,104.364 163.222539,103.836005 160.285049,102.78 C157.347558,101.723995 154.699041,100.16401 152.339417,98.1 C149.979794,96.0359897 148.077677,93.4440156 146.63301,90.324 C145.188342,87.2039844 144.466019,83.5320211 144.466019,79.308 L144.466019,25.164 Z M211.389903,0.972 L225.547573,0.972 L244.472621,55.26 L244.761553,55.26 L263.542136,0.972 L277.844272,0.972 L277.844272,103.5 L263.108738,103.5 L263.108738,41.148 L262.819806,41.148 L248.228738,85.212 L240.860971,85.212 L226.414369,41.148 L226.125437,41.148 L226.125437,103.5 L211.389903,103.5 L211.389903,0.972 Z M296.227573,0.972 L340.145243,0.972 L340.145243,14.796 L310.963107,14.796 L310.963107,44.892 L336.389126,44.892 L336.389126,58.716 L310.963107,58.716 L310.963107,88.812 L340.145243,88.812 L340.145243,103.5 L296.227573,103.5 L296.227573,0.972 Z M353.616699,0.972 L367.774369,0.972 L390.022136,62.748 L390.311068,62.748 L390.311068,0.972 L405.046602,0.972 L405.046602,103.5 L391.177864,103.5 L368.641165,41.868 L368.352233,41.868 L368.352233,103.5 L353.616699,103.5 L353.616699,0.972 Z M432.531262,14.796 L415.484272,14.796 L415.484272,0.972 L464.313786,0.972 L464.313786,14.796 L447.266796,14.796 L447.266796,103.5 L432.531262,103.5 L432.531262,14.796 Z" id="AUGMENT" stroke="#E70B81" fill-opacity="0" fill="#FFFFFF" transform="translate(236.815922, 52.236000) rotate(-360.000000) translate(-236.815922, -52.236000) "></path>
            </g>
        </g>
    </g>
</svg>